REM DIRINDEX 1\2,1\3,1\4
REM DIRNAME folder01,folder02,folder03,folder04
TITLE ""
FILE "Disk1Track29.mp3" MP3
  TRACK 01 AUDIO
    TITLE "2:cjc032_0190"
    INDEX 01 00:00:00
  TRACK 02 AUDIO
    TITLE "2:cjc032_0191"
    INDEX 01 00:06:43
  TRACK 03 AUDIO
    TITLE "2:cjc032_0192"
    INDEX 01 00:19:54
  TRACK 04 AUDIO
    TITLE "2:cjc032_0193"
    INDEX 01 00:24:10
  TRACK 05 AUDIO
    TITLE "0:"
    INDEX 01 00:37:34
